<svg width="48" height="48" viewBox="0 0 48 48" fill="none" xmlns="http://www.w3.org/2000/svg">
<path d="M18 38.388V9.61203L34.443 24L18 38.388ZM19.977 40.647L36.417 26.259C36.7392 25.9775 36.9975 25.6302 37.1744 25.2406C37.3514 24.8509 37.4429 24.428 37.4429 24C37.4429 23.5721 37.3514 23.1491 37.1744 22.7595C36.9975 22.3699 36.7392 22.0226 36.417 21.741L19.98 7.35303C18.033 5.65503 15 7.03503 15 9.61203V38.388C14.9995 38.9648 15.1653 39.5294 15.4774 40.0144C15.7896 40.4993 16.2349 40.884 16.7601 41.1224C17.2852 41.3608 17.868 41.4427 18.4385 41.3584C19.0091 41.2741 19.5432 41.0271 19.977 40.647Z" fill="white"/>
</svg>
