<svg width="32" height="32" viewBox="0 0 32 32" fill="none" xmlns="http://www.w3.org/2000/svg">
<path fill-rule="evenodd" clip-rule="evenodd" d="M21.3333 12.0002C19.5651 12.0002 17.8694 12.7025 16.6192 13.9528C15.369 15.203 14.6666 16.8987 14.6666 18.6668V26.6668H17.3333V18.6668C17.3333 17.606 17.7547 16.5885 18.5048 15.8384C19.255 15.0883 20.2724 14.6668 21.3333 14.6668C22.3941 14.6668 23.4115 15.0883 24.1617 15.8384C24.9118 16.5885 25.3333 17.606 25.3333 18.6668V26.6668H27.9999V18.6668C27.9999 16.8987 27.2975 15.203 26.0473 13.9528C24.7971 12.7025 23.1014 12.0002 21.3333 12.0002ZM14.7336 12.0672C16.4839 10.3168 18.8579 9.3335 21.3333 9.3335C23.8086 9.3335 26.1826 10.3168 27.9329 12.0672C29.6833 13.8175 30.6666 16.1915 30.6666 18.6668V28.0002C30.6666 28.7365 30.0696 29.3335 29.3333 29.3335H23.9999C23.2635 29.3335 22.6666 28.7365 22.6666 28.0002V18.6668C22.6666 18.3132 22.5261 17.9741 22.2761 17.724C22.026 17.474 21.6869 17.3335 21.3333 17.3335C20.9796 17.3335 20.6405 17.474 20.3904 17.724C20.1404 17.9741 19.9999 18.3132 19.9999 18.6668V28.0002C19.9999 28.7365 19.403 29.3335 18.6666 29.3335H13.3333C12.5969 29.3335 11.9999 28.7365 11.9999 28.0002V18.6668C11.9999 16.1915 12.9832 13.8175 14.7336 12.0672Z" fill="#7F7F80"/>
<path fill-rule="evenodd" clip-rule="evenodd" d="M1.33325 12.0002C1.33325 11.2638 1.93021 10.6668 2.66659 10.6668H7.99992C8.7363 10.6668 9.33325 11.2638 9.33325 12.0002V28.0002C9.33325 28.7365 8.7363 29.3335 7.99992 29.3335H2.66659C1.93021 29.3335 1.33325 28.7365 1.33325 28.0002V12.0002ZM3.99992 13.3335V26.6668H6.66658V13.3335H3.99992Z" fill="#7F7F80"/>
<path fill-rule="evenodd" clip-rule="evenodd" d="M5.33325 4.00016C4.59687 4.00016 3.99992 4.59712 3.99992 5.3335C3.99992 6.06988 4.59687 6.66683 5.33325 6.66683C6.06963 6.66683 6.66658 6.06988 6.66658 5.3335C6.66658 4.59712 6.06963 4.00016 5.33325 4.00016ZM1.33325 5.3335C1.33325 3.12436 3.12411 1.3335 5.33325 1.3335C7.54239 1.3335 9.33325 3.12436 9.33325 5.3335C9.33325 7.54264 7.54239 9.3335 5.33325 9.3335C3.12411 9.3335 1.33325 7.54264 1.33325 5.3335Z" fill="#7F7F80"/>
</svg>
