<svg width="32" height="32" viewBox="0 0 32 32" fill="none" xmlns="http://www.w3.org/2000/svg">
<path fill-rule="evenodd" clip-rule="evenodd" d="M5.49748 8.76879C5.29595 8.83351 5.11244 8.94539 4.96238 9.09545C4.80649 9.25134 4.69181 9.44333 4.62839 9.65411C3.74811 13.8388 3.74811 18.1609 4.62839 22.3456C4.69181 22.5563 4.80649 22.7483 4.96238 22.9042C5.11244 23.0543 5.29596 23.1662 5.4975 23.2309C12.4525 24.3745 19.5477 24.3744 26.5027 23.2309C26.7042 23.1662 26.8877 23.0543 27.0378 22.9042C27.1937 22.7483 27.3084 22.5563 27.3718 22.3455C28.2521 18.1609 28.2521 13.8388 27.3718 9.65413C27.3084 9.44334 27.1937 9.25135 27.0378 9.09545C26.8877 8.94539 26.7042 8.83352 26.5027 8.76879C19.5476 7.62546 12.4525 7.62546 5.49748 8.76879ZM4.98217 6.1511C12.2777 4.94247 19.7225 4.94247 27.018 6.1511C27.0634 6.15861 27.1083 6.16847 27.1526 6.18062C27.8222 6.3642 28.4325 6.7189 28.9234 7.20984C29.4144 7.70077 29.7691 8.31104 29.9526 8.98062C29.9595 9.00582 29.9657 9.03121 29.9711 9.05677C30.9412 13.6347 30.9412 18.365 29.9711 22.9429C29.9657 22.9685 29.9595 22.9939 29.9526 23.0191C29.7691 23.6886 29.4144 24.2989 28.9234 24.7898C28.4325 25.2808 27.8222 25.6355 27.1526 25.819C27.1083 25.8312 27.0634 25.8411 27.0181 25.8486C19.7225 27.0574 12.2777 27.0574 4.98213 25.8486C4.93679 25.8411 4.89187 25.8312 4.84754 25.819C4.17796 25.6355 3.5677 25.2808 3.07676 24.7898C2.58582 24.2989 2.23112 23.6886 2.04754 23.0191C2.04063 22.9939 2.03447 22.9685 2.02905 22.9429C1.059 18.365 1.059 13.6347 2.02905 9.05677C2.03447 9.03121 2.04063 9.00582 2.04754 8.98062C2.23112 8.31104 2.58582 7.70077 3.07676 7.20984C3.56769 6.7189 4.17796 6.3642 4.84754 6.18062C4.89188 6.16847 4.93682 6.15861 4.98217 6.1511Z" fill="#7F7F80"/>
<path fill-rule="evenodd" clip-rule="evenodd" d="M12.6765 10.8396C13.0945 10.6029 13.6075 10.6094 14.0194 10.8565L20.6861 14.8565C21.0877 15.0975 21.3334 15.5315 21.3334 15.9998C21.3334 16.4682 21.0877 16.9022 20.6861 17.1432L14.0194 21.1432C13.6075 21.3903 13.0945 21.3968 12.6765 21.1601C12.2585 20.9234 12.0001 20.4802 12.0001 19.9998V11.9998C12.0001 11.5195 12.2585 11.0762 12.6765 10.8396ZM14.6668 14.3548V17.6449L17.4086 15.9998L14.6668 14.3548Z" fill="#7F7F80"/>
</svg>
