<svg width="33" height="12" viewBox="0 0 33 12" fill="none" xmlns="http://www.w3.org/2000/svg">
<g clip-path="url(#clip0_544_1164)">
<path d="M6.41391 11.7663H4.52199L0 0H1.24474C1.92914 0 2.54117 0.437972 2.77481 1.09282L5.45244 8.58466H5.47726L8.14662 1.09282C8.38026 0.437972 8.99229 0 9.67876 0H10.9214L6.41598 11.7642H6.41391V11.7663Z" fill="white"/>
<path d="M20.7719 11.7663H18.3217L17.4905 10.6777C17.0025 11.1009 16.467 11.4294 15.886 11.6568C15.305 11.8842 14.6909 12 14.0437 12C13.2208 12 12.4681 11.8337 11.7858 11.501C11.1035 11.1683 10.5597 10.6924 10.1565 10.0733C9.7533 9.45429 9.55273 8.73206 9.55273 7.91297C9.55273 7.33813 9.66646 6.78224 9.89803 6.24741C10.1275 5.71258 10.4584 5.24092 10.8843 4.83243C11.3123 4.42604 11.8065 4.12493 12.3648 3.92911L9.70574 0.762239L10.8119 0H18.1067C18.1067 1.17073 17.1742 2.11827 16.0266 2.11827H13.4606L17.4409 7.36971C17.7366 6.60958 17.8937 5.75259 17.9103 4.79874H17.9165C19.0909 4.79453 19.9469 5.92736 19.645 7.08124C19.4486 7.82664 19.1591 8.51097 18.7828 9.13634L20.774 11.7663H20.7719ZM16.2975 9.10265L13.5268 5.45148C13.1587 5.48938 12.8424 5.61362 12.5777 5.82418C12.311 6.03264 12.1104 6.28952 11.974 6.59063C11.8375 6.89174 11.7693 7.20337 11.7693 7.52974C11.7693 8.0372 11.883 8.46675 12.1104 8.81628C12.3379 9.16582 12.6418 9.42692 13.0223 9.60379C13.4027 9.78066 13.8266 9.86699 14.2939 9.86699C15.0548 9.86699 15.7247 9.61221 16.2995 9.10476L16.2975 9.10265Z" fill="white"/>
<path d="M20.7614 11.7663H19.6118L21.0178 0H22.6492C23.1765 0 23.6458 0.345324 23.8092 0.854887L26.3049 8.5994L28.7923 0.856992C28.9577 0.345324 29.425 0 29.9543 0H31.5836L32.9979 11.7726H31.8255C31.2114 11.7726 30.6966 11.3009 30.6325 10.6798L29.9067 3.63432L27.2849 11.7663H25.3537L22.7319 3.63432L21.9793 10.6566C21.9111 11.2883 21.3879 11.7642 20.7656 11.7642H20.7635L20.7614 11.7663Z" fill="white"/>
</g>
<defs>
<clipPath id="clip0_544_1164">
<rect width="33" height="12" fill="white"/>
</clipPath>
</defs>
</svg>
