<svg width="73" height="26" viewBox="0 0 73 26" fill="none" xmlns="http://www.w3.org/2000/svg">
<g clip-path="url(#clip0_134_805)">
<path d="M14.1883 25.4936H10.0032L0 0H2.75351C4.26748 0 5.62137 0.948939 6.13822 2.36778L12.0615 18.6001H12.1164L18.0213 2.36778C18.5382 0.948939 19.892 0 21.4106 0H24.1595L14.1929 25.489H14.1883V25.4936Z" fill="white"/>
<path d="M45.9498 25.4936H40.5296L38.6909 23.1349C37.6115 24.0519 36.4268 24.7636 35.1416 25.2564C33.8563 25.7491 32.4978 26 31.0662 26C29.2458 26 27.5808 25.6396 26.0714 24.9188C24.562 24.1979 23.3591 23.1669 22.4672 21.8256C21.5753 20.4843 21.1316 18.9195 21.1316 17.1448C21.1316 15.8993 21.3832 14.6949 21.8954 13.5361C22.4031 12.3773 23.135 11.3553 24.0772 10.4703C25.024 9.58975 26.1172 8.93736 27.3521 8.51307L21.4701 1.65152L23.9171 0H40.054C40.054 2.53659 37.9911 4.58958 35.4526 4.58958H29.7763L38.5812 15.9677C39.2352 14.3208 39.5828 12.4639 39.6194 10.3973H39.6332C42.2312 10.3881 44.1248 12.8426 43.457 15.3427C43.0224 16.9577 42.3821 18.4404 41.5496 19.7954L45.9543 25.4936H45.9498ZM36.0518 19.7224L29.9227 11.8115C29.1085 11.8937 28.4087 12.1628 27.8233 12.6191C27.2332 13.0707 26.7895 13.6273 26.4877 14.2797C26.1858 14.9321 26.0348 15.6073 26.0348 16.3144C26.0348 17.4139 26.2864 18.3446 26.7895 19.1019C27.2927 19.8593 27.965 20.425 28.8067 20.8082C29.6483 21.1914 30.5859 21.3785 31.6196 21.3785C33.3028 21.3785 34.7848 20.8265 36.0563 19.727L36.0518 19.7224Z" fill="white"/>
<path d="M45.9269 25.4936H43.3838L46.4941 0H50.1029C51.2693 0 52.3075 0.748201 52.6689 1.85225L58.1896 18.632L63.6921 1.85682C64.058 0.748201 65.0917 0 66.2626 0H69.8669L72.9954 25.5073H70.402C69.0436 25.5073 67.9047 24.4853 67.7629 23.1395L66.1574 7.87436L60.3577 25.4936H56.0856L50.2859 7.87436L48.6209 23.0893C48.47 24.458 47.3128 25.489 45.936 25.489H45.9315L45.9269 25.4936Z" fill="white"/>
</g>
<defs>
<clipPath id="clip0_134_805">
<rect width="73" height="26" fill="white"/>
</clipPath>
</defs>
</svg>
