<svg width="268" height="38" viewBox="0 0 268 38" fill="none" xmlns="http://www.w3.org/2000/svg">
<g clip-path="url(#clip0_247_175)">
<path d="M16.7787 37.3964H11.8296L0 7.09863H4.73182C5.63471 7.09863 6.454 7.66017 6.75497 8.52342L14.2623 29.208H14.3292L21.8115 8.52342C22.1125 7.66017 22.9318 7.09863 23.8347 7.09863H28.5665L16.7787 37.3964Z" fill="white"/>
<path d="M37.0186 35.7958C34.6276 34.3962 32.7382 32.4937 31.3588 30.1051C29.9794 27.7081 29.2688 25.0596 29.2688 22.1933C29.2688 19.3269 29.9543 16.6701 31.3588 14.2815C32.7382 11.8845 34.6276 10.0155 37.0186 8.63264C39.4096 7.24975 42.0347 6.5625 44.9106 6.5625C47.7864 6.5625 50.4199 7.24975 52.8025 8.63264C55.1935 10.0155 57.0829 11.9097 58.4623 14.2815C59.8417 16.6534 60.5272 19.3102 60.5272 22.1933C60.5272 25.0764 59.8417 27.7164 58.4623 30.1051C57.0829 32.5021 55.1935 34.3962 52.8025 35.7958C50.4115 37.1955 47.7864 37.8911 44.9106 37.8911C42.0347 37.8911 39.3845 37.2039 37.0186 35.7958ZM49.7761 30.9516C51.2642 30.0632 52.443 28.8395 53.3292 27.3058C54.2154 25.772 54.6417 24.0707 54.6417 22.2184C54.6417 20.3662 54.1903 18.6397 53.3292 17.1059C52.443 15.5722 51.2642 14.3653 49.7594 13.4853C48.2546 12.5969 46.6578 12.1443 44.9189 12.1443C43.18 12.1443 41.5665 12.5969 40.0784 13.4853C38.5903 14.3737 37.3865 15.5973 36.5087 17.1311C35.6225 18.6648 35.171 20.3662 35.171 22.2184C35.171 24.0707 35.6225 25.7804 36.5087 27.3058C37.3948 28.8395 38.5736 30.0632 40.0784 30.9516C41.5665 31.84 43.18 32.2925 44.9189 32.2925C46.6578 32.2925 48.2713 31.84 49.7594 30.9516H49.7845H49.7761Z" fill="white"/>
<path d="M67.675 37.3964H60.7947L71.2699 21.8494L61.4802 7.09863H68.4275L74.8815 17.4493L81.2686 7.09863H88.2409L78.6686 21.8494L88.9515 37.3964H82.0461L74.8647 26.0986L67.6834 37.3964H67.675Z" fill="white"/>
<path d="M130.903 37.3964H124.49L122.317 34.5887C121.046 35.6866 119.65 36.5331 118.12 37.1114C116.59 37.6897 115.002 37.9998 113.304 37.9998C111.156 37.9998 109.175 37.5724 107.411 36.7091C105.622 35.8459 104.209 34.639 103.155 33.0466C102.102 31.4542 101.567 29.5936 101.567 27.4815C101.567 25.9897 101.868 24.5733 102.47 23.1904C103.072 21.8075 103.933 20.6006 105.053 19.5446C106.173 18.4886 107.461 17.7091 108.924 17.2146L104.861 11.9513V7.09863H123.939V8.23846C123.939 10.6103 121.999 12.5547 119.633 12.5547H111.783L122.191 26.0735C122.969 24.1123 123.378 21.9081 123.42 19.4524H123.897C126.672 19.4524 128.762 22.0422 128.11 24.7325C128.068 24.9253 128.002 25.118 127.96 25.3108C127.441 27.2301 126.689 28.9985 125.703 30.6161L130.911 37.388L130.903 37.3964ZM119.198 30.5406L111.95 21.137C110.98 21.246 110.161 21.5644 109.476 22.1092C108.79 22.6456 108.247 23.2993 107.887 24.0955C107.519 24.875 107.352 25.6712 107.352 26.5093C107.352 27.8251 107.653 28.9231 108.255 29.8115C108.857 30.7166 109.651 31.3871 110.646 31.8397C111.641 32.2923 112.753 32.527 113.957 32.527C115.955 32.527 117.702 31.8816 119.207 30.5658V30.5406H119.198Z" fill="white"/>
<path d="M147.807 37.3964H143.869L147.548 7.09863H152.58C153.508 7.09863 154.344 7.70207 154.62 8.59047L161.375 29.2499L168.105 8.59047C168.381 7.70207 169.225 7.09863 170.145 7.09863H175.161L178.865 37.4215H174.91C173.815 37.4215 172.887 36.5834 172.778 35.4771L170.78 16.452L163.917 37.3964H158.859L151.995 16.452L149.93 35.4771C149.805 36.575 148.894 37.3964 147.798 37.3964H147.807Z" fill="white"/>
<path d="M193.068 0L188.161 5.00353H183.797L187.283 0H193.068ZM190.084 37.3966H184.257V7.09881H190.084V37.3966Z" fill="white"/>
<path d="M197.265 37.3964V7.09863H208.175C211.076 7.09863 213.726 7.76912 216.134 9.08496C218.542 10.4259 220.456 12.2363 221.852 14.5662C223.248 16.8962 223.959 19.444 223.959 22.2685C223.959 25.0929 223.248 27.6408 221.869 29.9456C220.473 32.2504 218.575 34.0607 216.167 35.4017C213.76 36.7427 211.135 37.388 208.225 37.388H197.257V37.4131L197.265 37.3964ZM208.434 31.8313C210.223 31.8313 211.853 31.4206 213.316 30.5825C214.78 29.7444 215.942 28.5962 216.778 27.1547C217.614 25.7131 218.023 24.0704 218.023 22.2601C218.023 20.4498 217.597 18.8071 216.752 17.3404C215.916 15.8737 214.754 14.7338 213.266 13.8873C211.778 13.0408 210.148 12.6386 208.342 12.6386H203.075V31.8565H208.409L208.434 31.8313Z" fill="white"/>
<path d="M235.195 37.3964H229.368V7.09863H235.195V37.3964Z" fill="white"/>
<path d="M268 37.3968H261.981L259.849 31.5719H247.242L245.135 37.3968H239.091L250.987 7.05713H256.154L268.008 37.3968H268ZM253.261 15.036L249.064 26.5935H258.035L253.821 15.036L253.545 13.9967L253.269 15.036H253.261Z" fill="white"/>
</g>
<defs>
<clipPath id="clip0_247_175">
<rect width="268" height="38" fill="white"/>
</clipPath>
</defs>
</svg>
